<svg width="622" height="162" viewBox="0 0 622 162" fill="none" xmlns="http://www.w3.org/2000/svg">
<path d="M73.0692 157.815C59.0333 157.815 47.2974 155.81 37.8615 151.8C28.5436 147.79 21.0538 142.305 15.3923 135.346C9.84872 128.269 5.89744 120.072 3.53846 110.754C1.17949 101.318 1.25002e-06 91.2923 1.25002e-06 80.6769C1.25002e-06 70.0615 1.17949 60.0949 3.53846 50.7769C5.89744 41.341 9.84872 33.1436 15.3923 26.1846C21.0538 19.2256 28.5436 13.741 37.8615 9.73077C47.2974 5.60256 59.0333 3.53846 73.0692 3.53846C81.2077 3.53846 88.5205 4.18717 95.0077 5.48461C101.613 6.78205 107.392 8.78718 112.346 11.5C115.885 13.2692 118.538 15.5103 120.308 18.2231C122.195 20.9359 123.374 23.8846 123.846 27.0692C124.436 30.1359 124.377 33.3205 123.669 36.6231C122.962 39.8077 121.782 42.8744 120.131 45.8231C118.479 48.8897 116.415 51.6615 113.938 54.1385C111.462 56.6154 108.69 58.5615 105.623 59.9769C102.674 61.2744 99.4897 61.982 96.0692 62.1C92.7667 62.1 89.3462 61.2154 85.8077 59.4461C84.2744 58.6205 82.4462 57.9718 80.3231 57.5C78.2 56.9103 75.7821 56.6154 73.0692 56.6154C68.8231 56.6154 65.2256 57.2641 62.2769 58.5615C59.3282 59.859 56.9103 61.6282 55.0231 63.8692C53.2538 66.1103 51.8974 68.6461 50.9538 71.4769C50.1282 74.3077 49.7154 77.3154 49.7154 80.5C49.7154 83.6846 50.1282 86.7513 50.9538 89.7C51.8974 92.6487 53.2538 95.2436 55.0231 97.4846C56.9103 99.7256 59.3282 101.495 62.2769 102.792C65.2256 104.09 68.8231 104.738 73.0692 104.738C75.7821 104.738 78.2 104.503 80.3231 104.031C82.4462 103.441 84.2744 102.733 85.8077 101.908C89.3462 100.138 92.8256 99.3128 96.2462 99.4308C99.7846 99.4308 103.087 100.197 106.154 101.731C109.221 103.264 111.933 105.328 114.292 107.923C116.769 110.4 118.833 113.231 120.485 116.415C122.018 119.364 123.079 122.431 123.669 125.615C124.259 128.8 124.259 131.926 123.669 134.992C123.197 137.941 122.018 140.713 120.131 143.308C118.244 146.021 115.649 148.262 112.346 150.031C107.392 152.744 101.613 154.69 95.0077 155.869C88.5205 157.167 81.2077 157.815 73.0692 157.815ZM200.808 143.485C196.797 149.5 191.844 153.687 185.946 156.046C180.167 158.405 173.797 159.585 166.838 159.585C161.767 159.585 157.049 158.936 152.685 157.638C148.32 156.341 144.487 154.395 141.185 151.8C138 149.323 135.464 146.197 133.577 142.423C131.69 138.649 130.746 134.344 130.746 129.508C130.746 125.144 131.513 121.192 133.046 117.654C134.697 113.997 136.938 110.813 139.769 108.1C142.6 105.269 145.962 102.969 149.854 101.2C153.746 99.4308 157.933 98.0744 162.415 97.1308C170.672 95.4795 177.631 92.9436 183.292 89.5231C188.954 85.9846 193.259 81.9744 196.208 77.4923C196.797 76.6667 196.974 75.841 196.738 75.0154C196.503 74.1897 196.031 73.541 195.323 73.0692C194.733 72.5974 194.026 72.4205 193.2 72.5385C192.374 72.5385 191.667 72.9513 191.077 73.7769C189.308 76.2538 187.126 78.6128 184.531 80.8538C182.054 82.9769 179.282 84.8051 176.215 86.3385C173.149 87.8718 169.787 89.1103 166.131 90.0538C162.592 90.8795 158.936 91.2923 155.162 91.2923C148.203 91.2923 142.954 89.7 139.415 86.5154C135.877 83.2128 134.108 79.0846 134.108 74.1308C134.108 69.6487 135.464 65.6385 138.177 62.1C140.89 58.4436 144.546 55.3179 149.146 52.7231C153.746 50.1282 159.113 48.182 165.246 46.8846C171.379 45.4692 177.867 44.7615 184.708 44.7615C198.862 44.7615 210.067 47.2385 218.323 52.1923C226.579 57.1461 232.536 64.8128 236.192 75.1923C237.726 79.5564 238.846 84.5103 239.554 90.0538C240.379 95.4795 240.792 101.141 240.792 107.038C240.91 112.936 240.615 118.892 239.908 124.908C239.318 130.923 238.433 136.644 237.254 142.069C234.895 152.685 228.762 157.992 218.854 157.992C208.946 157.992 202.931 153.156 200.808 143.485ZM170.731 130.923C174.977 130.333 179.046 128.859 182.938 126.5C186.831 124.023 190.428 121.428 193.731 118.715C194.556 118.008 194.969 117.241 194.969 116.415C194.969 115.59 194.733 114.882 194.262 114.292C193.79 113.703 193.2 113.29 192.492 113.054C191.785 112.818 191.136 112.936 190.546 113.408C187.126 116.238 183.705 118.597 180.285 120.485C176.864 122.372 172.795 123.905 168.077 125.085C167.369 125.321 166.897 125.792 166.662 126.5C166.544 127.09 166.603 127.738 166.838 128.446C167.074 129.154 167.487 129.803 168.077 130.392C168.785 130.864 169.669 131.041 170.731 130.923ZM264.178 97.3077C262.173 97.3077 260.286 97.0718 258.516 96.6C256.865 96.0103 255.391 95.3615 254.093 94.6538C248.432 91.3513 245.601 84.9231 245.601 75.3692C245.601 71.8308 246.014 68.941 246.839 66.7C247.783 64.341 249.08 62.4538 250.732 61.0385C252.383 59.5051 254.388 58.3846 256.747 57.6769C259.106 56.8513 261.76 56.1436 264.709 55.5538C264.827 54.3744 264.886 53.2538 264.886 52.1923C264.886 51.0128 264.945 49.8333 265.063 48.6538C265.416 44.1718 266.124 40.5154 267.186 37.6846C268.365 34.8538 269.839 32.6718 271.609 31.1385C273.496 29.4872 275.737 28.3667 278.332 27.7769C281.045 27.1872 284.17 26.8923 287.709 26.8923C291.129 26.8923 294.137 27.1872 296.732 27.7769C299.327 28.3667 301.568 29.4872 303.455 31.1385C305.342 32.6718 306.816 34.8538 307.878 37.6846C309.057 40.5154 309.883 44.1718 310.355 48.6538V49.1846C314.129 48.9487 317.727 49.0077 321.147 49.3615C324.568 49.7154 327.339 50.541 329.463 51.8385C335.124 55.141 337.955 61.6282 337.955 71.3C337.955 78.141 336.245 83.0359 332.824 85.9846C329.522 88.9333 324.686 90.7615 318.316 91.4692L313.539 92C313.539 94.1231 313.48 96.1282 313.363 98.0154C313.245 99.9026 313.068 101.672 312.832 103.323C310.827 103.913 308.88 104.738 306.993 105.8C305.224 106.744 303.573 107.864 302.039 109.162C300.624 110.459 299.386 111.815 298.324 113.231C297.263 114.528 296.496 115.767 296.024 116.946C295.788 117.654 295.788 118.303 296.024 118.892C296.26 119.364 296.614 119.718 297.086 119.954C297.557 120.072 298.029 120.072 298.501 119.954C299.091 119.836 299.504 119.482 299.739 118.892C301.863 114.764 304.752 111.579 308.409 109.338C312.183 107.097 316.134 106.154 320.263 106.508C322.857 106.744 325.334 107.392 327.693 108.454C330.17 109.515 332.293 111.167 334.063 113.408C335.95 115.531 337.365 118.244 338.309 121.546C339.37 124.849 339.724 128.8 339.37 133.4C339.134 137.292 337.955 140.772 335.832 143.838C333.709 146.905 330.937 149.441 327.516 151.446C324.214 153.569 320.322 155.162 315.839 156.223C311.475 157.285 306.934 157.815 302.216 157.815C293.724 157.815 287.001 156.4 282.047 153.569C277.093 150.856 273.319 146.964 270.724 141.892C268.247 136.938 266.596 130.923 265.77 123.846C264.945 116.651 264.414 108.69 264.178 99.9615V97.3077ZM383.36 88.9923C382.889 89.2282 382.535 89.8179 382.299 90.7615C382.181 91.5872 382.358 92.3538 382.83 93.0615C386.25 98.0154 390.909 102.085 396.807 105.269C402.704 108.454 409.073 110.164 415.914 110.4C424.053 110.636 430.363 112.641 434.845 116.415C439.327 120.072 441.627 125.969 441.745 134.108C441.863 142.246 439.563 148.203 434.845 151.977C430.245 155.751 423.876 157.638 415.737 157.638C405.476 157.638 396.04 156.813 387.43 155.162C378.937 153.51 371.566 150.503 365.314 146.138C359.181 141.892 354.404 136.054 350.984 128.623C347.563 121.074 345.853 111.521 345.853 99.9615C345.853 88.1667 347.917 78.3769 352.045 70.5923C356.173 62.6897 361.658 56.6744 368.499 52.5461C375.458 48.3 383.478 45.8231 392.56 45.1154C401.76 44.4077 411.491 45.1744 421.753 47.4154C426.235 48.4769 429.95 50.3051 432.899 52.9C435.848 55.3769 438.148 58.3256 439.799 61.7462C441.45 65.1667 442.453 68.8231 442.807 72.7154C443.16 76.6077 442.984 80.441 442.276 84.2154C441.686 87.1641 440.802 89.9949 439.622 92.7077C438.443 95.3026 436.968 97.6615 435.199 99.7846C433.548 101.79 431.602 103.382 429.36 104.562C427.237 105.741 424.878 106.331 422.284 106.331C414.971 106.331 408.248 104.856 402.114 101.908C395.981 98.841 390.85 94.4769 386.722 88.8154C386.25 88.2256 385.66 87.9897 384.953 88.1077C384.363 88.1077 383.832 88.4026 383.36 88.9923ZM503.13 104.915C502.895 109.633 502.6 114.351 502.246 119.069C502.01 123.669 501.656 128.269 501.184 132.869C500.83 136.172 500.064 139.238 498.884 142.069C497.823 145.018 496.348 147.554 494.461 149.677C492.574 151.8 490.215 153.451 487.384 154.631C484.672 155.928 481.487 156.577 477.83 156.577C474.056 156.577 470.754 155.928 467.923 154.631C465.21 153.451 462.851 151.8 460.846 149.677C458.959 147.554 457.484 145.018 456.423 142.069C455.361 139.238 454.654 136.172 454.3 132.869C453.71 126.972 453.238 121.192 452.884 115.531C452.648 109.751 452.413 103.913 452.177 98.0154V91.8231C452.177 86.7513 452.236 81.4436 452.354 75.9C452.472 70.2385 452.589 64.5769 452.707 58.9154C452.943 53.2538 453.179 47.7102 453.415 42.2846C453.769 36.741 454.123 31.6103 454.477 26.8923C454.83 22.4103 455.538 18.7538 456.6 15.9231C457.661 13.0923 459.136 10.9103 461.023 9.37692C462.91 7.72564 465.151 6.60512 467.746 6.01538C470.459 5.42564 473.584 5.13077 477.123 5.13077C480.543 5.13077 483.551 5.42564 486.146 6.01538C488.741 6.60512 490.982 7.72564 492.869 9.37692C494.756 10.9103 496.23 13.0923 497.292 15.9231C498.472 18.7538 499.297 22.4103 499.769 26.8923C499.887 28.1897 500.005 29.841 500.123 31.8462C500.241 33.7333 500.359 35.7974 500.477 38.0385C500.595 40.1615 500.713 42.2846 500.83 44.4077C500.948 46.4128 501.007 48.182 501.007 49.7154C497.587 52.3103 494.815 55.0231 492.692 57.8538C490.569 60.6846 488.682 64.0461 487.03 67.9385C486.559 69 486.441 69.9436 486.677 70.7692C486.913 71.4769 487.266 72.0077 487.738 72.3615C488.21 72.7154 488.741 72.8333 489.33 72.7154C490.038 72.4795 490.628 71.9487 491.1 71.1231C492.043 69.2359 493.046 67.4077 494.107 65.6385C495.169 63.8692 496.348 62.1 497.646 60.3308C501.42 55.0231 505.843 51.1308 510.915 48.6538C515.987 46.059 521.354 44.7615 527.015 44.7615C532.677 44.7615 537.63 45.882 541.877 48.1231C546.241 50.3641 549.838 53.4308 552.669 57.3231C555.5 61.2154 557.623 65.7564 559.038 70.9461C560.572 76.0179 561.338 81.4436 561.338 87.2231C561.338 91.3513 561.279 95.3026 561.161 99.0769C561.161 102.733 561.043 106.39 560.807 110.046C560.572 113.703 560.277 117.418 559.923 121.192C559.569 124.849 559.156 128.741 558.684 132.869C558.33 136.172 557.623 139.238 556.561 142.069C555.5 145.018 553.966 147.554 551.961 149.677C550.074 151.8 547.715 153.451 544.884 154.631C542.172 155.928 538.987 156.577 535.33 156.577C531.556 156.577 528.254 155.928 525.423 154.631C522.71 153.451 520.351 151.8 518.346 149.677C516.459 147.554 514.984 145.018 513.923 142.069C512.861 139.238 512.154 136.172 511.8 132.869C511.21 128.269 510.797 123.728 510.561 119.246C510.325 114.646 510.089 110.046 509.854 105.446C509.618 104.385 509.146 103.618 508.438 103.146C507.848 102.674 507.2 102.438 506.492 102.438C504.841 102.438 503.72 103.264 503.13 104.915ZM577.07 90.0538C575.773 78.6128 574.712 67.2308 573.886 55.9077C573.06 44.4667 572.883 32.5538 573.355 20.1692C573.591 14.1538 575.891 9.31794 580.255 5.66154C584.619 1.88718 590.34 -6.63904e-07 597.417 -6.63904e-07C604.494 -6.63904e-07 610.214 1.88718 614.578 5.66154C618.942 9.31794 621.242 14.1538 621.478 20.1692C621.832 32.5538 621.596 44.4667 620.77 55.9077C619.945 67.2308 618.883 78.6128 617.586 90.0538C616.996 95.4795 615.05 99.8436 611.747 103.146C608.563 106.449 603.786 108.1 597.417 108.1C591.047 108.1 586.212 106.449 582.909 103.146C579.606 99.8436 577.66 95.4795 577.07 90.0538ZM573.886 140.477C573.886 133.046 576.009 127.149 580.255 122.785C584.619 118.421 590.34 116.238 597.417 116.238C604.612 116.238 610.332 118.421 614.578 122.785C618.824 127.149 620.947 133.046 620.947 140.477C620.947 143.544 620.358 146.315 619.178 148.792C617.999 151.387 616.347 153.628 614.224 155.515C612.219 157.403 609.742 158.877 606.794 159.938C603.963 161 600.837 161.531 597.417 161.531C593.996 161.531 590.812 161 587.863 159.938C585.032 158.877 582.555 157.403 580.432 155.515C578.427 153.628 576.835 151.387 575.655 148.792C574.476 146.315 573.886 143.544 573.886 140.477Z" fill="#F4FFA4"/>
</svg>
